<?xml version="1.0" encoding="UTF-8" standalone="no"?>
<svg
   xmlns:dc="http://purl.org/dc/elements/1.1/"
   xmlns:cc="http://creativecommons.org/ns#"
   xmlns:rdf="http://www.w3.org/1999/02/22-rdf-syntax-ns#"
   xmlns:svg="http://www.w3.org/2000/svg"
   xmlns="http://www.w3.org/2000/svg"
   xmlns:xlink="http://www.w3.org/1999/xlink"
   xmlns:sodipodi="http://sodipodi.sourceforge.net/DTD/sodipodi-0.dtd"
   xmlns:inkscape="http://www.inkscape.org/namespaces/inkscape"
   inkscape:version="1.0 (4035a4f, 2020-05-01)"
   sodipodi:docname="logo-visa_mastercard.svg"
   xml:space="preserve"
   style="enable-background:new 0 0 300 140;"
   viewBox="0 0 300 140"
   y="0px"
   x="0px"
   id="Ebene_1"
   version="1.1"><metadata
   id="metadata478"><rdf:RDF><cc:Work
       rdf:about=""><dc:format>image/svg+xml</dc:format><dc:type
         rdf:resource="http://purl.org/dc/dcmitype/StillImage"/><dc:title></dc:title></cc:Work></rdf:RDF></metadata><defs
   id="defs476"/><sodipodi:namedview
   inkscape:current-layer="Ebene_1"
   inkscape:window-maximized="0"
   inkscape:window-y="209"
   inkscape:window-x="53"
   inkscape:cy="70"
   inkscape:cx="150"
   inkscape:zoom="3.6433333"
   showgrid="false"
   id="namedview474"
   inkscape:window-height="886"
   inkscape:window-width="1503"
   inkscape:pageshadow="2"
   inkscape:pageopacity="0"
   guidetolerance="10"
   gridtolerance="10"
   objecttolerance="10"
   borderopacity="1"
   bordercolor="#666666"
   pagecolor="#ffffff"/>
<style
   id="style447"
   type="text/css">
	.st0{fill-rule:evenodd;clip-rule:evenodd;fill:#FFFFFF;}
	.st1{fill:#FF5F00;}
	.st2{fill:#EB001B;}
	.st3{fill:#F79E1B;}
	.st4{clip-path:url(#SVGID_2_);fill:url(#XMLID_2_);}
</style>
<path
   id="path449"
   d="M0,0h300v140H0V0z"
   class="st0"/>

<g
   id="g471">
	<g
   id="g469">
		<defs
   id="defs458">
			<path
   d="M61.7,55.1l-8.1,20.7l-3.3-17.5c-0.4-1.9-1.9-3.1-3.6-3.1H33.4L33.2,56c2.7,0.6,5.8,1.5,7.7,2.6     c1.2,0.6,1.5,1.2,1.8,2.6L49,85.4h8.3L70,55.1C70,55.1,61.7,55.1,61.7,55.1z M73.3,55.1l-6.5,30.3h7.8l6.5-30.3     C81.2,55.1,73.3,55.1,73.3,55.1z M118.3,63.4l2.4,11.4h-6.5L118.3,63.4z M117.1,55.1c-1.5,0-2.8,0.9-3.3,2.2L102,85.4h8.2     l1.6-4.5H122l0.9,4.5h7.2l-6.3-30.3C123.8,55.1,117.1,55.1,117.1,55.1z M83.3,64.6c-0.1,4.4,3.9,6.8,6.8,8.2     c3.1,1.5,4.1,2.4,4.1,3.7c0,2.1-2.4,3-4.7,3c-4,0.1-6.2-1.1-8.1-1.9l-1.4,6.7c1.8,0.8,5.2,1.6,8.7,1.6c8.2,0,13.6-4.1,13.6-10.4     c0.1-8-11.1-8.4-11-12c0-1.1,1.1-2.3,3.3-2.5c1.1-0.2,4.2-0.3,7.7,1.4l1.4-6.4c-1.9-0.7-4.3-1.3-7.3-1.3     C88.8,54.6,83.3,58.7,83.3,64.6"
   id="SVGID_1_"/>
		</defs>
		<clipPath
   id="SVGID_2_">
			<use
   id="use460"
   style="overflow:visible;"
   xlink:href="#SVGID_1_"/>
		</clipPath>
		
			<linearGradient
   gradientTransform="matrix(126.5456 0 0 126.5456 38361.6445 -3415.5911)"
   y2="27.5462"
   x2="-302.1166"
   y1="27.5462"
   x1="-302.8826"
   gradientUnits="userSpaceOnUse"
   id="XMLID_2_">
			<stop
   id="stop463"
   style="stop-color:#241F5D"
   offset="0"/>
			<stop
   id="stop465"
   style="stop-color:#034EA1"
   offset="1"/>
		</linearGradient>
		<rect
   clip-path="url(#SVGID_2_)"
   height="31.3"
   width="96.9"
   class="st4"
   y="54.6"
   x="33.2"
   id="XMLID_6_"/>
	</g>
</g>
<g
   transform="matrix(0.40421082,0,0,0.40421082,801.50353,-407.83484)"
   id="g292"><g
     transform="matrix(3.1437,0,0,3.1437,-4835.7,-1027.6)"
     id="g290"><g
       transform="matrix(1.25,0,0,-1.25,1102.5,727.74)"
       id="g274"><path
         d="m 0,0 v -0.103 h 0.095 c 0.021,0 0.039,0.005 0.052,0.013 0.012,0.008 0.019,0.022 0.019,0.039 0,0.017 -0.007,0.03 -0.019,0.038 C 0.134,-0.004 0.116,0 0.095,0 Z M 0.096,0.072 C 0.145,0.072 0.183,0.061 0.21,0.039 0.237,0.017 0.25,-0.013 0.25,-0.051 0.25,-0.083 0.24,-0.109 0.218,-0.13 0.197,-0.15 0.167,-0.163 0.127,-0.168 L 0.253,-0.313 H 0.155 L 0.038,-0.169 H 0 V -0.313 H -0.082 V 0.072 Z M 0.071,-0.446 c 0.045,0 0.087,0.009 0.125,0.026 0.039,0.017 0.073,0.04 0.102,0.069 0.029,0.029 0.052,0.063 0.069,0.103 0.016,0.039 0.025,0.081 0.025,0.126 0,0.045 -0.009,0.087 -0.025,0.126 C 0.35,0.043 0.327,0.078 0.298,0.107 0.269,0.136 0.235,0.159 0.196,0.176 0.158,0.192 0.116,0.2 0.071,0.2 0.026,0.2 -0.017,0.192 -0.056,0.176 -0.096,0.159 -0.131,0.136 -0.16,0.107 -0.189,0.078 -0.212,0.043 -0.228,0.004 c -0.017,-0.039 -0.025,-0.081 -0.025,-0.126 0,-0.045 0.008,-0.087 0.025,-0.126 0.016,-0.04 0.039,-0.074 0.068,-0.103 0.029,-0.029 0.064,-0.052 0.104,-0.069 0.039,-0.017 0.082,-0.026 0.127,-0.026 m 0,0.739 C 0.13,0.293 0.184,0.282 0.236,0.26 0.287,0.239 0.331,0.209 0.37,0.171 0.408,0.134 0.438,0.09 0.46,0.039 0.482,-0.011 0.493,-0.065 0.493,-0.122 0.493,-0.179 0.482,-0.233 0.46,-0.283 0.438,-0.333 0.408,-0.377 0.37,-0.415 0.331,-0.452 0.287,-0.482 0.236,-0.504 0.184,-0.526 0.13,-0.537 0.071,-0.537 c -0.06,0 -0.115,0.011 -0.167,0.033 -0.052,0.022 -0.097,0.052 -0.135,0.089 -0.038,0.038 -0.068,0.082 -0.09,0.132 -0.022,0.05 -0.033,0.104 -0.033,0.161 0,0.057 0.011,0.111 0.033,0.161 0.022,0.051 0.052,0.095 0.09,0.132 0.038,0.038 0.083,0.068 0.135,0.089 0.052,0.022 0.107,0.033 0.167,0.033 M -38.89,1.776 c 0,0.734 0.481,1.337 1.267,1.337 0.751,0 1.258,-0.577 1.258,-1.337 0,-0.76 -0.507,-1.337 -1.258,-1.337 -0.786,0 -1.267,0.603 -1.267,1.337 m 3.381,0 v 2.088 h -0.908 V 3.357 c -0.288,0.376 -0.725,0.612 -1.319,0.612 -1.171,0 -2.089,-0.918 -2.089,-2.193 0,-1.276 0.918,-2.193 2.089,-2.193 0.594,0 1.031,0.236 1.319,0.612 v -0.507 h 0.908 z m 30.684,0 c 0,0.734 0.481,1.337 1.267,1.337 0.752,0 1.258,-0.577 1.258,-1.337 0,-0.76 -0.506,-1.337 -1.258,-1.337 -0.786,0 -1.267,0.603 -1.267,1.337 m 3.382,0 V 5.541 H -2.352 V 3.357 c -0.288,0.376 -0.725,0.612 -1.319,0.612 -1.171,0 -2.089,-0.918 -2.089,-2.193 0,-1.276 0.918,-2.193 2.089,-2.193 0.594,0 1.031,0.236 1.319,0.612 v -0.507 h 0.909 z m -22.795,1.38 c 0.585,0 0.961,-0.367 1.057,-1.013 h -2.167 c 0.097,0.603 0.463,1.013 1.11,1.013 m 0.018,0.813 c -1.224,0 -2.08,-0.891 -2.08,-2.193 0,-1.328 0.891,-2.193 2.141,-2.193 0.629,0 1.205,0.157 1.712,0.585 l -0.445,0.673 c -0.35,-0.279 -0.796,-0.437 -1.215,-0.437 -0.585,0 -1.118,0.271 -1.249,1.023 h 3.101 c 0.009,0.113 0.018,0.227 0.018,0.349 -0.009,1.302 -0.813,2.193 -1.983,2.193 m 10.964,-2.193 c 0,0.734 0.481,1.337 1.267,1.337 0.751,0 1.258,-0.577 1.258,-1.337 0,-0.76 -0.507,-1.337 -1.258,-1.337 -0.786,0 -1.267,0.603 -1.267,1.337 m 3.381,0 v 2.088 h -0.908 V 3.357 c -0.289,0.376 -0.725,0.612 -1.319,0.612 -1.171,0 -2.089,-0.918 -2.089,-2.193 0,-1.276 0.918,-2.193 2.089,-2.193 0.594,0 1.03,0.236 1.319,0.612 v -0.507 h 0.908 z m -8.509,0 c 0,-1.267 0.882,-2.193 2.228,-2.193 0.629,0 1.048,0.14 1.502,0.498 l -0.436,0.734 c -0.341,-0.245 -0.699,-0.376 -1.093,-0.376 -0.725,0.009 -1.258,0.533 -1.258,1.337 0,0.804 0.533,1.328 1.258,1.337 0.394,0 0.752,-0.131 1.093,-0.376 l 0.436,0.734 c -0.454,0.358 -0.873,0.498 -1.502,0.498 -1.346,0 -2.228,-0.926 -2.228,-2.193 m 11.707,2.193 c -0.524,0 -0.865,-0.245 -1.101,-0.612 v 0.507 h -0.9 v -4.176 h 0.909 v 2.341 c 0,0.691 0.297,1.075 0.891,1.075 0.184,0 0.376,-0.026 0.568,-0.105 l 0.28,0.856 C -6.231,3.934 -6.493,3.969 -6.677,3.969 M -31.018,3.532 c -0.437,0.288 -1.039,0.437 -1.703,0.437 -1.058,0 -1.739,-0.507 -1.739,-1.337 0,-0.681 0.507,-1.101 1.441,-1.232 l 0.429,-0.061 c 0.498,-0.07 0.733,-0.201 0.733,-0.437 0,-0.323 -0.332,-0.507 -0.952,-0.507 -0.629,0 -1.083,0.201 -1.389,0.437 l -0.428,-0.707 c 0.498,-0.367 1.127,-0.542 1.808,-0.542 1.206,0 1.905,0.568 1.905,1.363 0,0.734 -0.55,1.118 -1.459,1.249 L -32.8,2.257 c -0.393,0.052 -0.708,0.13 -0.708,0.41 0,0.306 0.297,0.489 0.795,0.489 0.533,0 1.049,-0.201 1.302,-0.358 z m 11.716,0.437 c -0.524,0 -0.865,-0.245 -1.1,-0.612 v 0.507 h -0.9 v -4.176 h 0.908 v 2.341 c 0,0.691 0.297,1.075 0.891,1.075 0.184,0 0.376,-0.026 0.568,-0.105 l 0.28,0.856 c -0.201,0.079 -0.463,0.114 -0.647,0.114 m -7.749,-0.105 h -1.485 v 1.267 h -0.918 V 3.864 h -0.847 v -0.83 h 0.847 V 1.129 c 0,-0.969 0.376,-1.546 1.45,-1.546 0.394,0 0.848,0.122 1.136,0.323 l -0.262,0.778 c -0.271,-0.157 -0.568,-0.236 -0.804,-0.236 -0.454,0 -0.602,0.28 -0.602,0.699 v 1.887 h 1.485 z m -13.577,-4.176 v 2.621 c 0,0.987 -0.629,1.651 -1.643,1.66 -0.533,0.009 -1.083,-0.157 -1.468,-0.743 -0.288,0.463 -0.742,0.743 -1.38,0.743 -0.446,0 -0.882,-0.131 -1.223,-0.62 v 0.515 h -0.909 v -4.176 h 0.917 v 2.315 c 0,0.725 0.402,1.11 1.023,1.11 0.603,0 0.908,-0.393 0.908,-1.101 v -2.324 h 0.918 v 2.315 c 0,0.725 0.419,1.11 1.022,1.11 0.62,0 0.917,-0.393 0.917,-1.101 v -2.324 z"
         fill="#231f20"
         id="path272"/></g><g
       transform="matrix(1.25,0,0,-1.25,1103.2,710.77)"
       id="g278"><path
         d="M 0,0 V 0.61 H -0.159 L -0.343,0.191 -0.526,0.61 h -0.16 V 0 h 0.113 v 0.46 l 0.172,-0.397 h 0.117 l 0.172,0.398 V 0 Z m -1.009,0 v 0.506 h 0.204 v 0.103 h -0.52 V 0.506 h 0.204 V 0 Z"
         fill="#f79410"
         id="path276"/></g><path
       d="m 1080.6,714.05 h -17.202 v -30.915 h 17.202 z"
       fill="#ff5f00"
       id="path280"/><g
       transform="matrix(1.25,0,0,-1.25,1064.5,698.59)"
       id="g284"><path
         d="m 0,0 c 0,5.017 2.349,9.486 6.007,12.366 -2.675,2.106 -6.051,3.363 -9.72,3.363 -8.686,0 -15.727,-7.042 -15.727,-15.729 0,-8.687 7.041,-15.729 15.727,-15.729 3.669,0 7.045,1.257 9.72,3.363 C 2.349,-9.486 0,-5.017 0,0"
         fill="#eb001b"
         id="path282"/></g><g
       transform="matrix(1.25,0,0,-1.25,1103.8,698.59)"
       id="g288"><path
         d="m 0,0 c 0,-8.687 -7.041,-15.729 -15.727,-15.729 -3.669,0 -7.045,1.257 -9.721,3.363 3.659,2.88 6.008,7.349 6.008,12.366 0,5.017 -2.349,9.486 -6.008,12.366 2.676,2.106 6.052,3.363 9.721,3.363 C -7.041,15.729 0,8.687 0,0"
         fill="#f79e1b"
         id="path286"/></g></g></g></svg>
